<?xml version="1.0" encoding="UTF-8"?>
<svg id="Capa_2" data-name="Capa 2" xmlns="http://www.w3.org/2000/svg" viewBox="0 0 304.51 92.54">
  <defs>
    <style>
      .cls-1 {
        fill: #fff;
      }
    </style>
  </defs>
  <g id="Capa_1-2" data-name="Capa 1">
    <path class="cls-1" d="M203.26,89.82c1.72.21,3.68.45,5.64.69.06-.14.12-.29.17-.44-1.18-.77-2.37-1.55-3.55-2.32.05-.14.09-.28.14-.42,1.32.49,2.64.97,4.09,1.51-.1.15-.27.39-.45.65.78.36,1.57.72,2.45,1.12.2-.28.42-.66.72-.98.82-.91,1.53-.79,2.02.3.09.2.3.52.43.5.93-.11,1.86-.28,2.79-.44.82-.14,1.69-.79,2.39.26.14.22.49.45.75.45,1.64,0,3.29-.11,4.93-.11,1.11,0,2.21.1,3.32.14.46.02.93,0,1.39-.26-.47-.19-.95-.38-1.42-.58.02-.11.04-.22.06-.33,1.17-.21,2.35-.41,3.66-.65-.53-1.5-1.63-1.25-2.68-1.19-1.3.07-2.6.04-4.22.05-.07.08-.38.44-.52.6-.93-.13-1.67-.26-2.43-.32-.2-.01-.52.18-.61.36-.66,1.32-.73,1.35-1.86.48-1.49-1.15-3.05-1.85-4.95-.71-.42-.44-.8-.83-1.25-1.29-1.77.71-3.6,1.21-5.38.29-.62.05-1.27.23-1.87.13-.68-.11-1.31-.46-2.24-.81.18.65.29,1.03.44,1.56-1.18.09-2.25.17-3.16.24-1.04-.23-2.01-.42-2.96-.66-.39-.1-.77-.26-1.12-.46-1.15-.65-2.1-.71-2.91.53-.13.2-.91.15-1.33.04-1.8-.48-3.6-1.12-5.05.77-.3-.15-.65-.21-.82-.41-1.04-1.23-2.11-1.67-3.42-.3-.13.13-.54.02-.82.03.02-.28.04-.55.06-.81-1.83.21-3.66.42-5.6.65.26.56.49,1.04.76,1.62-.43.27-.88.54-1.34.82-.41-.52-.81-1.04-1.06-1.35-2.02.58-2.87-1.4-4.63-1.36-.4.63-.9,1.39-1.62,2.51,1.34.32,2.44.8,3.54.79,2.32-.02,4.63-.28,6.94-.47.21-.02.52-.15.6-.32.55-1.14,1.06-.47,1.6-.01.53.46.76,1.26,1.87.39.56-.44,1.96.07,3.21-.16-.8-.69-1.6-1.38-2.57-2.22-.04.05.25-.38.3-.36.95.44,1.88.94,3.2,1.63.81.17,2.14.38,3.44.73,2.03.55,3.97.35,5.92-.33.39-.13.96.16,1.43.31.73.22,1.42.58,2.16.68.34.04.76-.38,1.4-.74"/>
    <path class="cls-1" d="M106.64,90.24c1.68,2.08,3.99,1.47,6.11,1.53,1.89.05,3.79-.02,6.08-.04-.55-.7-.79-1.01-1.16-1.49,1.15.09,2.42-.41,2.1,1.34-.02.13.54.52.84.52,1.79.03,3.59-.01,5.44-.03.25-.8.12-2,1.86-1.77-.27.33-.44.55-.72.9.59,0,1.03-.01,1.58-.02.06-.41.12-.87.15-1.1,2.6-1.81,4.52-.17,6.6.66,4.62-.52,9.22.14,13.83.67,1.17.13,2.33.45,2.58-1.36.29.54.43.81.63,1.18.6-.54,1.11-.98,1.61-1.43.08.07.17.15.25.22-.21.29-.41.58-.74,1.04.42,0,.88.06.91-.02.54-1.34,1.61-.57,2.45-.54.71.02,1.41.3,2.12.33,2.21.09,4.44.01,6.64.19,2.44.2,2.43.29,2.62-2.18-1.76.9-2.72-.46-3.8-1.1-1.2.37-2.31.72-3.56,1.11.15.07.55.27.94.46-.05.13-.1.27-.15.4-1-.2-2-.39-3.17-.62.5-.32,1.1-.7,1.94-1.24-3.02.03-5.81.06-8.84.09-.72,1.24-2.1.19-3.42.11-.07.38-.14.73-.17.91-.8,0-1.49.02-2.18.02.12.2.24.39.41.66-1.33.1-2.62.2-4.03.31.15-.62.3-1.26.56-2.35-1.01.73-1.7,1.22-2.2,1.58-2.36-.48-4.6-.94-7.22-1.48.47.55.71.82,1.21,1.4-.9-.19-1.42-.3-1.82-.38-.06-.56,0-1.33-.18-1.38-.53-.16-1.31-.24-1.72.02-1.07.67-1.77,1.73-3.48,1.22-.47-.14-2.18.84-1.93,2.32-1.38-.21-3.07.23-3.41-2.11-.11.17-.21.33-.32.5-.16.45-.31.89-.44,1.25-1.86-.73-3.69-1.44-5.58-2.17-.46.33-.93.67-1.52,1.09.4.28.7.49,1.03.72-.18.11-.35.28-.43.25-.49-.2-1.4-.45-1.39-.65.11-1.89-1.04-1.41-2.24-1.12-.07.5-.14,1.02-.23,1.61-.58-.12-1.15-.25-1.8-.39.21-.66.41-1.28.61-1.9l-.38-.13c-.16.27-.32.55-.55.95-.25-.63-.45-1.12-.62-1.55-1.45-.19-2.82-.36-4.19-.54-.05.21-.09.41-.14.62.67.2,1.34.39,2.11.61,0,.5-.53,1.51,1.02,1.14-.24.53-.41.92-.52,1.16"/>
    <path class="cls-1" d="M37.6,88.27c-.74.29-1.24.49-1.8.72.45.62.84,1.17,1.18,1.64.96-.47,1.87-.92,2.9-1.42.1.55.16.86.21,1.16q4.78.37,4.24-.87c.46.07,1.06.03,1.13.19.53,1.21,1.53.81,2.49.81,6.28.01,12.56.07,18.84.11.62,0,1.23-.05,1.85-.04,1.57,0,3.15.02,4.73.05.72.01,1.57.76,2.11-.36.05-.09.66,0,.99.1.62.16,1.23.38,2,.62,0-.74-.01-1.27-.02-1.96-.32-.14-.76-.34-1.24-.55.4-.29.74-.54,1.08-.79l-.18-.39c-.75.27-1.5.53-2.52.89-.54-.42-1.36-1.05-2.15-1.65-.26.29-.59.65-.99,1.09.68.27,1.34.53,2,.79-.01.12-.02.24-.03.37-1.32.25-2.72.88-3.93.64-1.14-.22-2.08-1.34-3.31-2.2-.24.84-.38,1.32-.65,2.25-.44-.82-.7-1.3-.96-1.79-1.24.74-2.51,1.48-3.95,2.34-.29-.59-.56-1.12-.85-1.71-1.27.92-2.47.66-3.88-.07-.77-.4-1.97-.19-2.95-.07-1.31.16-2.58.62-3.89.73-1.63.13-3.29.2-4.9,0-1.78-.22-3.5-.82-5.27-1.16-1.16-.23-2.37-.29-3.55-.42-.03.15-.06.3-.09.45.36.14.73.29,1.35.53"/>
    <path class="cls-1" d="M251.66,90.64c.86.07,1.74.6,2.58-.16.13-.12.51-.07.75,0,1.65.44,3.32.85,4.93,1.39.93.31,1.21.04,1.21-.4,1.12.03,2.25.1,3.37.08,1.21-.03,2.41-.23,3.61-.2,4.58.13,9.17.32,13.75.5,1.03.04,2.06.12,3.09.11.29,0,.58-.26.86-.4-.23-.26-.4-.66-.69-.76-.61-.22-1.28-.38-1.94-.42-1.15-.06-2.3,0-3.49.02.06.12.24.46.47.92-.25-.03-.52.01-.6-.08-1.37-1.76-3.06-1.6-4.96-.88-.42.16-1.06-.21-1.53-.64-.85.17-1.7.39-2.56.5-.45.06-.97.04-1.37-.13-2.63-1.09-5.83-1.3-8.55-.46,0-.37,0-.71-.01-1.29-.76.88-1.35,1.56-1.94,2.24-1.84-.56-2.14-.98-1.4-2.18-.25-.13-.68-.41-.73-.36-1.16,1.17-2.48.57-3.79.42-.34-.04-.73.27-1.25.49.47.39.8.66,1.11.92-.3.27-.6.54-.9.82l-.03-.03Z"/>
    <path class="cls-1" d="M101.83,91.52c-.4-.81-.54-1.09-.79-1.6.78.28,1.31.47,1.84.66l.13-.28c-.89-.38-1.78-.77-2.74-1.18.1-.17.25-.43.53-.92-.72,0-1.25.05-1.77,0-1.01-.08-2.01-.26-3.02-.29-.53-.02-1.27.04-1.57.35-1.42,1.5-2.15,1.42-3-.64.37.19.61.32.85.43.26.13.53.24.83.38.03-1.27-.13-1.49-1.19-1.43-.45.02-.99.1-1.3.36-1.96,1.61-3.98.72-6.01.25-.31-.07-.69.24-1.05.25-1.15.05-2.29.04-3.6.05.1.69.22,1.51.35,2.42,1.16.25,2.35.51,3.66.8.34-.94.66-1.84,1.05-2.93.5.74,1.02,1.51,1.46,2.17.54,0,1.05-.16,1.39.01,2.31,1.18,4.77.92,7.28.9-.05-.71-.09-1.28-.14-2.01.99.82,1.74,1.86,2.76,2.19,1.12.36,2.47.06,4.04.04"/>
    <path class="cls-1" d="M245.77,90.92c.64-1.2-.26-1.56-.94-1.85-.92-.39-1.91-.71-2.9-.86-.72-.11-1.49.14-2.24.2-.64.04-1.32.14-1.93.01-.75-.15-1.43-.57-2.17-.76-1.8-.45-2.44.08-2.35,1.91-.42.07-.86.14-1.72.27,1.23.42,2.1.76,2.99,1.02,1.19.34,1.54-.44,1.8-1.41.76.53,1.47,1.02,2.31,1.61.58-1.67,1.43-1.17,2.31-.46.39.32.76.75,1.22.87.44.12,1.26.05,1.42-.2.6-1,1.28-1.14,2.21-.34"/>
    <path class="cls-1" d="M290.16,90.69c.72-1.06,1.06-.38,1.58.06.47.41.97.78,1.6,1.27.23-.81.35-1.26.48-1.7.03.12.05.25.08.38,3.5-2.02,6.67,1.18,9.72.22.33.21.62.39.89.56-.06.31-.1.62-.12.93-.44-.14-.88-.27-1.32-.4-.66-.19-1.92-.45-1.95-.36-.4,1.1-1.28.56-1.95.58-1.44.04-2.92-.19-4.31.06-1.52.27-2.82.47-3.71-1.17-1.27,1.19-2.47,1.14-2.94.21.67-.2,1.66-.2,1.96-.63"/>
    <path class="cls-1" d="M23.29,90.17c-.46-.2-.92-.4-1.38-.61.04-.11.09-.22.13-.32.68.22,1.36.44,2.14.7-.04-.38-.07-.63-.11-.99.81.36,1.53.68,2.32,1.02-.99-3.7-1.61-3.93-5.62-2.14.05.32.11.66.21,1.18-.5-.16-.85-.27-1.33-.43-.15.48-.28.91-.32,1.04,1.38.36,2.61.68,3.84,1.01l.12-.47Z"/>
    <path class="cls-1" d="M30.46,87.89c.32-.02.64-.03.97-.05.15.41.3.81.59,1.62-.74-.13-1.26-.16-1.73-.32-.42-.15-.76-.53-1.18-.64-.26-.07-.76.1-.89.31-.14.23,0,.89.07.9,1.56.17,2.99,1.39,4.65.62.54-.25,1.2-.72,1.32-1.2.18-.69-.18-1.44-1.13-1.57-.87-.11-1.76-.14-2.63-.21,0,.18-.02.36-.02.53"/>
    <path class="cls-1" d="M6.05,88.71c-.15.45-.26.79-.38,1.13-.68-.18-1.26-.34-1.84-.49-.13.18-.27.36-.4.54.58.27,1.16.53,1.75.8-.11.14-.22.28-.34.42-.54-.2-1.07-.39-1.62-.59.09.91,1.35,2.23,2.09,2.01,1.68-.49,1.86-1.9,1.99-3.4-.41-.13-.82-.27-1.26-.42"/>
    <path class="cls-1" d="M251.69,90.67c-.28-.07-.72-.06-.83-.23-.94-1.5-2.43-1.55-3.99-1.53-.36,1.41.19,2.34,1.6,2.49,1.01.11,2.04.01,3.07-.04.05,0,.08-.47.11-.72l.03.03"/>
    <path class="cls-1" d="M17.42,89.25c-.69.58-1.37,1.16-2.06,1.74-.14-.07-.28-.14-.42-.2.86.14,1.72.27,2.62.41,1.18-1.62,1.09-2.03-.57-2.51.14.19.28.38.42.57"/>
    <path class="cls-1" d="M14.09,91.48c-1.48-2.44-2.47-2.78-3.65-1.04.57-.14,1.02-.4,1.36-.31.41.11.75.51,1.09.82.3.28.54.61.81.91.13-.13.27-.26.4-.39"/>
    <path class="cls-1" d="M142.41,58.14s-13.3-12.19-1.57-25.15c0,0,13.19-14.42,13.64-21.24,0,0,14.98,14.42.89,28.62,0,0-10.73,10.62-12.97,17.78"/>
    <path class="cls-1" d="M148.76,3.27l-3.34-.14c-.83-.04-1.49-.75-1.45-1.58v-.1c.04-.83.75-1.49,1.59-1.45l3.34.14c.83.04,1.49.75,1.45,1.58v.1c-.04.83-.75,1.49-1.58,1.45"/>
    <path class="cls-1" d="M148.65,11.21l-9.06-.39c-1.07-.05-1.91-.96-1.86-2.03v-.12c.05-1.07.97-1.91,2.04-1.86l9.06.39c1.07.05,1.91.96,1.87,2.03v.12c-.05,1.07-.97,1.91-2.04,1.86"/>
    <path class="cls-1" d="M147.74,18.22l-14.42-.62c-1.04-.04-1.86-.93-1.81-1.98v-.12c.05-1.04.94-1.86,1.98-1.81l14.42.62c1.04.04,1.86.93,1.81,1.98v.12c-.05,1.04-.94,1.86-1.98,1.81"/>
    <path class="cls-1" d="M143.48,24.75l-15.97-.69c-.95-.04-1.7-.85-1.66-1.81v-.11c.04-.95.86-1.7,1.81-1.66l15.97.69c.95.04,1.7.85,1.66,1.81v.11c-.04.95-.86,1.7-1.81,1.66"/>
    <path class="cls-1" d="M137.73,32.12l-12.05-.52c-.86-.04-1.54-.77-1.5-1.64v-.1c.04-.86.78-1.54,1.64-1.5l12.05.52c.86.04,1.54.77,1.5,1.64v.1c-.04.86-.78,1.54-1.64,1.5"/>
    <path class="cls-1" d="M131.74,38.8l-3.23-.14c-.92-.04-1.65-.83-1.61-1.75v-.11c.04-.92.83-1.65,1.76-1.61l3.23.14c.92.04,1.65.83,1.61,1.75v.11c-.04.92-.83,1.65-1.75,1.61"/>
    <path class="cls-1" d="M142.41,58.14s-13.3-12.19-1.57-25.15c0,0,13.75-15.54,13.64-21.24,0,0,4.36,7.15-8.5,25.94,0,0-6.93,7.83-3.58,20.46"/>
    <path class="cls-1" d="M18.12,56.73l-3.94,10.05h7.34l-3.4-10.05ZM19.47,47.94h2.16c.18.67.37,1.31.57,1.92.2.61.39,1.21.57,1.82.18.61.38,1.21.59,1.82.22.61.43,1.19.65,1.77l5.82,16.16c.04.14.07.26.11.38.04.12.07.23.11.33,0,.1.02.2.05.3.04.1.07.2.11.3.07.2.14.4.22.61.07.2.14.39.22.56.14.4.3.81.46,1.21.16.4.31.81.46,1.21.18.4.35.8.51,1.19.16.39.33.77.51,1.14.22.44.46.8.73,1.09.27.29.59.5.95.63.36.13.74.25,1.16.35.41.1.85.18,1.32.25h.16v1.67h-3.72c-.29,0-.56,0-.81-.02-.25-.02-.52-.03-.81-.03-.15,0-.31,0-.49-.03-.18-.02-.34-.02-.49-.02-.18,0-.35,0-.51-.02-.16-.02-.33-.02-.51-.02-.11,0-.22,0-.32.02-.11.02-.22.02-.32.02h-.7c-.36.03-.73.06-1.1.08-.38.02-.76.02-1.16.02h-3.72v-1.72h2.16l.11.05h-2.16.22s.07.05.11.05.07-.02.11-.05h.38s.09-.02.16-.05h.27c.25-.03.49-.08.7-.15.21-.07.43-.15.65-.25.22-.1.38-.24.49-.43.11-.18.16-.4.16-.63v-.2s-.05-.07-.05-.1v-.3s-.05-.08-.05-.13v-.13c-.04-.1-.06-.22-.08-.35-.02-.13-.06-.27-.13-.4-.04-.13-.07-.26-.11-.38-.04-.12-.07-.24-.11-.38-.04-.07-.07-.14-.11-.23-.04-.08-.07-.16-.11-.23-.04-.07-.06-.14-.08-.23-.02-.08-.03-.16-.03-.23l-2.37-7.02h-9.12l-1.94,5.1c-.04.17-.07.3-.11.4-.04.1-.07.2-.11.3-.04.03-.06.08-.08.13-.02.05-.03.09-.03.13-.04.07-.06.12-.08.15-.02.03-.03.08-.03.15-.14.34-.27.67-.38.98-.11.32-.21.65-.32.99-.11.34-.19.67-.24.98-.05.32-.08.63-.08.93,0,.24.05.45.14.63.09.18.24.33.46.43.22.1.44.19.68.25.23.07.48.14.73.2h.32s.08.05.14.05h.4s.08.05.14.05h.13l.11-.05h.11v1.67h-3.56c-.25,0-.49,0-.73-.02-.23-.02-.48-.03-.73-.03-.14,0-.29,0-.43-.03-.14-.02-.29-.02-.43-.02s-.29,0-.43-.02c-.14-.02-.29-.02-.43-.02s-.28,0-.4.02-.26.02-.4.02-.28,0-.4.02c-.13.02-.26.03-.4.03-.43.03-.86.05-1.29.05H.05l-.05-1.72h2.16l.27.05H.27l.32-.05c.07.03.14.05.22.05s.16-.02.27-.05c.07,0,.14,0,.22-.02.07-.02.14-.03.21-.03.14-.03.29-.08.43-.13.14-.05.29-.09.43-.13.14-.07.29-.15.43-.25.14-.1.29-.24.43-.4.14-.17.3-.35.46-.56.16-.2.31-.42.46-.66.18-.27.35-.55.51-.83.16-.29.31-.6.46-.93.07-.17.14-.34.22-.51.07-.17.16-.34.27-.51.07-.17.14-.34.22-.51.07-.17.14-.34.22-.51.22-.54.43-1.06.65-1.57.22-.51.41-.99.59-1.46.18-.47.34-.89.49-1.26.14-.37.27-.67.38-.91l4.04-10.15c.18-.37.35-.77.51-1.19.16-.42.33-.85.51-1.29.18-.44.36-.88.54-1.31.18-.44.36-.88.54-1.31.18-.4.35-.82.51-1.26.16-.44.33-.88.51-1.31.07-.2.15-.41.24-.63.09-.22.19-.45.3-.68.07-.2.15-.41.24-.63.09-.22.17-.43.24-.63v-.1l3.13-1.31Z"/>
    <path class="cls-1" d="M51.67,82.64h-3.45c-.43,0-.86-.02-1.29-.05-.11,0-.22,0-.35-.03-.13-.02-.26-.02-.41-.02s-.28,0-.4-.02c-.13-.02-.24-.02-.35-.02-.14,0-.29,0-.43.02-.14.02-.29.02-.43.02s-.28,0-.4.02c-.13.02-.26.03-.4.03-.47.03-.93.05-1.38.05h-3.53v-1.67c.76.07,1.37.03,1.83-.1.47-.13.81-.32,1.02-.56.18-.27.32-.63.43-1.09.11-.45.16-1,.16-1.64v-20.55l-.11-3.08c0-.47-.05-.91-.13-1.31-.09-.4-.23-.76-.4-1.06-.14-.3-.42-.53-.84-.68-.41-.15-.93-.23-1.54-.23l-.05-1.41c.57-.07,1.13-.19,1.67-.38.54-.18,1.08-.4,1.62-.63.5-.24,1.02-.48,1.54-.73.52-.25,1.01-.53,1.48-.83l2.16-.05,1.02.4c-.11.88-.2,1.74-.27,2.58-.07.84-.13,1.68-.16,2.53-.04.84-.05,1.67-.05,2.5v21.54c0,.07,0,.14-.03.2-.02.07-.03.14-.03.2v1.31c0,.57.04,1.06.14,1.46.09.4.21.74.35,1.01.18.23.48.41.89.53.41.12.96.18,1.65.18l-2.16-.05.49-.05h2.16v1.67Z"/>
    <path class="cls-1" d="M72.17,77.44v-.56s0-.08.03-.13c.02-.05.03-.09.03-.13v-4.44c-.04-.27-.05-.53-.05-.78v-.73c0-.51,0-1.02-.03-1.54-.02-.52-.04-1.05-.08-1.59-.04-.71-.21-1.34-.51-1.89-.31-.56-.73-1.04-1.27-1.44-.4-.27-.84-.51-1.32-.71-.49-.2-1-.34-1.54-.4-.9.14-1.71.41-2.43.83-.72.42-1.33.99-1.83,1.69-.57.84-1.02,1.74-1.32,2.7-.31.96-.46,1.96-.46,3v.51c0,.17.02.34.05.51v.23c0,.08.02.16.05.23,0,.1,0,.19.03.28.02.09.03.16.03.23.18.88.45,1.72.81,2.53.36.81.83,1.57,1.4,2.27.5.61,1.07,1.09,1.7,1.44.63.35,1.34.58,2.13.68.36-.07.71-.15,1.05-.25.34-.1.67-.24,1-.4.5-.24.96-.51,1.38-.81.41-.3.8-.66,1.16-1.06v-.25ZM81.07,80.62v1.41c-.54.07-1.08.14-1.62.2-.54.07-1.08.13-1.62.2-.54.1-1.08.2-1.62.3-.54.1-1.06.24-1.57.4h-2.16l-.76-.86v-.56s.02-.08.05-.15c0-.03,0-.08.03-.13.02-.05.03-.09.03-.13v-.1c-.14.14-.29.24-.43.33-.14.08-.29.16-.43.23-.07.03-.14.08-.22.13-.07.05-.15.09-.22.13-.65.34-1.31.57-2,.71-.68.13-1.38.2-2.1.2h-2.16c-1.29,0-2.44-.21-3.43-.63-.99-.42-1.84-1.07-2.56-1.94-.68-.88-1.25-1.8-1.7-2.78-.45-.98-.76-1.99-.94-3.03-.04-.1-.06-.2-.08-.3-.02-.1-.03-.2-.03-.3-.04-.07-.05-.15-.05-.25v-.3c-.04-.17-.05-.35-.05-.53v-.58c0-1.48.26-2.87.78-4.17.52-1.3,1.32-2.48,2.4-3.56,1.04-1.08,2.24-1.89,3.59-2.45,1.35-.56,2.83-.83,4.45-.83l2.16-.05c.25.03.49.06.73.08s.48.04.73.08c.22.03.44.07.67.13.23.05.48.11.73.18.04,0,.08,0,.13.03.05.02.1.02.13.02.04.03.08.06.14.08s.1.02.13.02v-4.85l-.05-3.08c0-.54-.05-1.01-.13-1.41-.09-.4-.23-.74-.4-1.01-.14-.27-.42-.47-.84-.61-.41-.13-.94-.2-1.59-.2v-1.41c.57-.07,1.13-.19,1.67-.38.54-.18,1.06-.4,1.57-.63.5-.27,1.01-.53,1.54-.78.52-.25,1.02-.53,1.48-.83l2.16-.05,1.03.45c-.11.88-.19,1.74-.24,2.58-.05.84-.1,1.67-.13,2.48-.04.84-.06,1.67-.08,2.5-.02.82-.03,1.66-.03,2.5v20.25c0,.34.02.64.05.91.04.27.07.52.11.76.07.4.19.72.35.96.16.23.37.39.62.45.25.07.52.13.81.18.29.05.61.08.97.08v-.05Z"/>
    <path class="cls-1" d="M91.59,67.84h6.63s.08.04.13.03c.05-.02.1-.04.14-.08.04,0,.08,0,.13-.03.05-.02.1-.02.13-.02.18-.07.32-.18.4-.35.09-.17.13-.39.13-.66,0-.51-.1-.98-.3-1.41-.2-.44-.49-.83-.89-1.16-.25-.24-.53-.43-.84-.58-.31-.15-.62-.26-.94-.33-.54.1-1.02.26-1.46.48-.43.22-.83.51-1.19.88-.47.47-.87.98-1.21,1.51-.34.54-.64,1.13-.89,1.77v-.05ZM105.29,79.41c-.54.61-1.12,1.14-1.75,1.59-.63.45-1.3.83-2.02,1.14-.72.27-1.46.48-2.21.63-.75.15-1.53.23-2.32.23h-2.16c-1.33,0-2.54-.24-3.64-.71-1.1-.47-2.06-1.18-2.89-2.12-.83-.98-1.48-1.99-1.97-3.05-.49-1.06-.78-2.16-.89-3.31v-.3s-.05-.08-.05-.13v-.73c0-1.48.23-2.88.7-4.19.47-1.31,1.17-2.54,2.1-3.69.94-1.18,2.07-2.05,3.4-2.63,1.33-.57,2.82-.86,4.48-.86l2.16-.05c.93.03,1.81.2,2.62.51.81.3,1.56.76,2.24,1.36.68.61,1.2,1.27,1.54,1.99.34.72.51,1.52.51,2.4,0,.44-.04.81-.11,1.11-.07.3-.2.52-.38.66-.15.13-.37.23-.68.3-.31.07-.67.1-1.1.1l-2.16-.05-9.49-.05c-.04.17-.06.33-.08.48-.02.15-.03.3-.03.43-.04.13-.05.26-.05.38v.38c0,1.14.18,2.22.54,3.23.36,1.01.92,1.97,1.67,2.88.61.77,1.35,1.39,2.21,1.84.86.45,1.8.73,2.8.83.22-.03.4-.06.57-.08.16-.02.33-.06.51-.13.11,0,.21-.02.3-.05.09-.03.17-.07.24-.1.43-.17.85-.34,1.27-.53.41-.18.82-.39,1.21-.63v-.1h2.16l.76,1.01Z"/>
    <path class="cls-1" d="M120.07,73.52c-.07.02-.14.04-.21.08-.11.03-.2.06-.27.08-.07.02-.14.04-.22.08-.58.2-1.12.44-1.65.71-.52.27-1.03.55-1.54.86-.47.34-.82.72-1.05,1.14-.23.42-.35.92-.35,1.49,0,.4.07.77.22,1.11.14.34.36.64.65.91.18.17.36.31.54.43.18.12.38.21.59.28.22-.07.43-.13.65-.2.22-.07.41-.17.59-.3.36-.24.7-.48,1.02-.73.32-.25.65-.51.97-.78l.11-.15.16-.15v-4.95c-.07.07-.14.11-.22.13M130.15,80.97c-.36.3-.73.57-1.11.81-.38.24-.76.45-1.16.66-.43.14-.86.25-1.29.35-.43.1-.86.15-1.29.15h-2.16c-.54,0-.99-.07-1.35-.2-.36-.13-.63-.35-.81-.66-.04-.1-.08-.2-.13-.3s-.12-.2-.19-.3c-.18.14-.37.27-.57.4-.2.13-.4.27-.62.4-.58.27-1.17.49-1.78.66-.61.17-1.26.25-1.94.25h-2.16c-.76,0-1.43-.11-2.02-.33-.59-.22-1.14-.55-1.65-.98-.47-.47-.82-.99-1.05-1.57-.23-.57-.35-1.2-.35-1.87,0-.71.13-1.32.38-1.84.25-.52.63-.95,1.13-1.29.5-.34,1.04-.64,1.62-.91.57-.27,1.17-.51,1.78-.71.07-.03.15-.07.24-.1.09-.03.19-.07.3-.1.07-.03.15-.07.24-.1.09-.03.19-.07.3-.1l5.77-2.07v-2.07c-.04-.1-.05-.19-.05-.28v-.28c0-.2,0-.4-.03-.61-.02-.2-.04-.42-.08-.66-.04-.44-.13-.86-.3-1.26s-.35-.79-.57-1.16c-.14-.24-.3-.44-.49-.61-.18-.17-.41-.3-.7-.4-.07.03-.14.06-.21.08-.07.02-.13.03-.16.03-.07.03-.14.06-.22.08-.07.02-.14.04-.21.08-.32.14-.63.28-.92.43-.29.15-.58.33-.86.53-.25.2-.46.41-.62.63s-.24.46-.24.73c-.04.4-.13.73-.27.99-.14.25-.32.45-.54.58-.21.14-.49.24-.81.33-.32.08-.7.14-1.13.18l-2.16-.05-.38-.1s-.06-.07-.08-.13c-.02-.05-.03-.11-.03-.18,0-.37.04-.71.13-1.03.09-.32.23-.6.4-.83.18-.27.4-.51.65-.73.25-.22.54-.43.86-.63.18-.1.35-.2.51-.3.16-.1.33-.22.51-.35.18-.13.37-.27.57-.4.2-.13.4-.27.62-.4.18-.1.35-.2.51-.3.16-.1.32-.2.46-.3.18-.1.36-.2.54-.3.18-.1.36-.2.54-.3.21-.1.44-.2.67-.3.23-.1.48-.2.73-.3.25-.07.49-.13.73-.18.23-.05.46-.08.67-.08l2.16-.05c1.15.03,2.11.24,2.89.61.77.37,1.34.93,1.7,1.67.36.74.63,1.52.81,2.35.18.83.29,1.68.32,2.55v1.52c-.04.2-.05.4-.05.58v3.91c-.04.2-.05.4-.05.58v3.56c.04.3.09.58.16.83.07.25.16.51.27.78.04.03.06.08.08.13.02.05.04.11.08.18.04-.03.07-.05.11-.05l.05-.05.21-.2.27-.15v-.05h2.16l.65.96Z"/>
    <path class="cls-1" d="M182.91,58.04h-2.16c-.32-1.24-.79-2.33-1.4-3.26-.61-.93-1.38-1.69-2.32-2.3-.79-.54-1.69-.96-2.7-1.26-1.01-.3-2.1-.47-3.29-.51-2.19.1-4.12.57-5.77,1.41-1.65.84-3.04,2.04-4.15,3.59-1.19,1.65-2.08,3.43-2.67,5.33-.59,1.9-.89,3.9-.89,5.99,0,1.95.32,3.77.94,5.45.63,1.69,1.59,3.22,2.89,4.6,1.15,1.25,2.51,2.21,4.07,2.88,1.57.67,3.3,1.06,5.21,1.16.83-.03,1.56-.12,2.21-.25.65-.13,1.24-.32,1.78-.55.61-.27,1.08-.74,1.4-1.41.32-.67.49-1.53.49-2.58v-1.21c0-.91-.05-1.67-.16-2.27-.11-.61-.27-1.03-.49-1.26-.22-.27-.67-.48-1.35-.63-.68-.15-1.6-.24-2.75-.28l-1.24-.15v-1.82h2.16c.61.14,1.21.23,1.81.28.59.05,1.18.09,1.75.13.39.03.78.05,1.16.05h1.11c.43,0,.85,0,1.27-.02.41-.02.82-.04,1.21-.08.57-.03,1.14-.07,1.7-.13.56-.05,1.12-.09,1.7-.13l2.16-.05v1.77c-.76.07-1.36.18-1.81.33-.45.15-.77.33-.94.53-.18.24-.32.58-.43,1.04-.11.45-.18,1.04-.21,1.74v4.01c0,.35.02.7.05,1.04.04.34.09.68.16,1.01.07.34.16.67.27,1.01-.83.27-1.66.52-2.51.76-.85.24-1.7.44-2.56.61-.43.03-.86.08-1.3.15-.43.07-.85.13-1.24.2-.43.07-.86.13-1.29.18-.43.05-.86.09-1.29.13h-1.32c-.09,0-.17.02-.24.05h-2.7c-2.62,0-5.06-.35-7.31-1.04-2.25-.69-4.29-1.76-6.12-3.21-1.87-1.45-3.26-3.18-4.18-5.2s-1.38-4.33-1.38-6.92c0-2.9.44-5.46,1.32-7.7.88-2.24,2.2-4.17,3.97-5.78,1.8-1.62,3.89-2.84,6.28-3.66,2.39-.82,5.11-1.24,8.17-1.24l2.16-.05c.11.03.21.05.3.05h.3c.07.03.15.05.24.05h.89c.07.03.16.05.27.05h.32c.79.07,1.57.16,2.35.28.77.12,1.55.26,2.35.43.75.17,1.51.35,2.27.53.76.18,1.51.38,2.26.58l.86,7.32-1.62.25Z"/>
    <path class="cls-1" d="M202.97,82.64h-3.45c-.43,0-.86-.02-1.29-.05-.11,0-.23,0-.35-.03-.13-.02-.26-.02-.4-.02s-.28,0-.4-.02c-.13-.02-.24-.02-.35-.02-.14,0-.29,0-.43.02-.14.02-.29.02-.43.02s-.28,0-.4.02c-.13.02-.26.03-.4.03-.47.03-.93.05-1.38.05h-3.53v-1.67c.75.07,1.37.03,1.83-.1.47-.13.81-.32,1.03-.56.18-.27.32-.63.43-1.09.11-.45.16-1,.16-1.64v-20.55l-.11-3.08c0-.47-.05-.91-.14-1.31-.09-.4-.23-.76-.4-1.06-.14-.3-.42-.53-.84-.68-.41-.15-.93-.23-1.54-.23l-.05-1.41c.58-.07,1.13-.19,1.67-.38s1.08-.4,1.62-.63c.5-.24,1.02-.48,1.54-.73.52-.25,1.02-.53,1.48-.83l2.16-.05,1.02.4c-.11.88-.2,1.74-.27,2.58-.07.84-.13,1.68-.16,2.53-.04.84-.05,1.67-.05,2.5v21.54c0,.07,0,.14-.03.2-.02.07-.03.14-.03.2v1.31c0,.57.04,1.06.14,1.46.09.4.21.74.35,1.01.18.23.48.41.89.53.41.12.96.18,1.64.18l-2.16-.05.49-.05h2.16v1.67Z"/>
    <path class="cls-1" d="M226,72.46v-.28c-.04-.07-.05-.15-.05-.25v-.3c0-.1,0-.2-.03-.3-.02-.1-.03-.2-.03-.3-.04-.07-.06-.15-.08-.25-.02-.1-.03-.2-.03-.3-.18-.94-.48-1.84-.89-2.7-.41-.86-.93-1.68-1.54-2.45-.5-.67-1.1-1.19-1.78-1.57-.68-.37-1.46-.62-2.32-.76-.86.14-1.64.4-2.35.81-.7.4-1.3.94-1.81,1.62-.61.84-1.08,1.71-1.4,2.6-.32.89-.48,1.83-.48,2.8v.88c0,.25.02.51.05.78.04.24.08.48.13.73.05.25.1.51.14.78.18.91.47,1.78.86,2.6.4.83.88,1.62,1.46,2.4.5.64,1.08,1.14,1.73,1.51.65.37,1.4.61,2.27.71.93-.13,1.77-.41,2.51-.83.74-.42,1.36-1,1.86-1.74.58-.88,1.01-1.79,1.3-2.75.29-.96.45-1.96.48-3.01v-.43ZM232.37,72.18c0,1.58-.3,3.02-.89,4.32-.59,1.3-1.48,2.45-2.67,3.46-1.19,1.04-2.47,1.81-3.86,2.3-1.38.49-2.87.73-4.45.73h-2.16c-1.73,0-3.28-.25-4.67-.76-1.39-.51-2.62-1.28-3.7-2.32-1.08-1.04-1.89-2.22-2.43-3.54-.54-1.31-.81-2.76-.81-4.34s.3-3.02.89-4.32c.59-1.3,1.48-2.47,2.67-3.51,1.19-1.04,2.48-1.83,3.88-2.35,1.4-.52,2.93-.78,4.58-.78l2.16-.05c1.69.03,3.23.33,4.61.88,1.38.56,2.6,1.37,3.64,2.45,1.04,1.11,1.83,2.32,2.37,3.64s.81,2.73.81,4.24v-.05Z"/>
    <path class="cls-1" d="M244.39,65.67v8.59c0,.07.02.14.05.2v.46c.07.81.19,1.57.35,2.27.16.71.4,1.4.73,2.07.29.54.69.97,1.21,1.29.52.32,1.18.53,1.97.63,1.04-.1,1.95-.36,2.72-.78.77-.42,1.45-1,2.02-1.74.65-.88,1.14-1.81,1.48-2.8s.51-2.05.51-3.16v-.66c-.07-.98-.29-1.92-.65-2.83-.36-.91-.86-1.77-1.51-2.58-.54-.67-1.18-1.21-1.92-1.62-.74-.4-1.57-.67-2.51-.81-.29.03-.59.08-.89.15-.3.07-.6.15-.89.25-.47.14-.93.3-1.38.48-.45.19-.89.4-1.32.63v-.05ZM245.64,62.36c.43-.18.86-.36,1.29-.53.5-.17,1.04-.3,1.62-.4.57-.1,1.19-.15,1.83-.15l2.16-.05c1.26.03,2.39.28,3.4.73,1.01.46,1.89,1.12,2.64,1.99.76.88,1.37,1.79,1.83,2.75.47.96.79,1.98.97,3.05,0,.17,0,.34.03.51.02.17.05.34.08.51v.28c0,.08.02.16.05.23v.51c0,1.62-.28,3.09-.84,4.42-.56,1.33-1.41,2.53-2.56,3.61-1.11,1.08-2.38,1.88-3.8,2.4-1.42.52-2.99.78-4.72.78h-2.86c-.14-.03-.27-.05-.38-.05h-.32c-.11,0-.22,0-.32-.03-.11-.02-.22-.02-.32-.02-.14-.03-.27-.05-.38-.05h-.32c-.25-.03-.49-.07-.73-.1-.23-.03-.46-.05-.67-.05h-.21s-.07-.05-.11-.05h-.11s-.07,0-.11.02c-.04.02-.07.02-.11.02-.07,0-.13,0-.16.03-.04.02-.07.03-.11.03-.14,0-.3,0-.46.02-.16.02-.32.04-.46.08-.14.03-.29.07-.43.1-.14.03-.29.07-.43.1h-2.16v-25.71l-.05-3.38c0-.5-.04-.96-.13-1.36s-.23-.76-.4-1.06c-.18-.27-.48-.48-.89-.63-.41-.15-.93-.23-1.54-.23v-1.41c.57-.07,1.13-.19,1.67-.38.54-.18,1.06-.39,1.56-.63.5-.23,1.02-.48,1.54-.73.52-.25,1.03-.53,1.54-.83l2.16-.05,1.02.4c-.11.91-.2,1.79-.27,2.65-.07.86-.13,1.73-.16,2.6-.04.84-.06,1.69-.08,2.55-.02.86-.03,1.73-.03,2.6v5.51c.4-.2.81-.4,1.24-.58"/>
    <path class="cls-1" d="M277.3,73.52c-.07.02-.14.04-.21.08-.11.03-.2.06-.27.08-.07.02-.14.04-.22.08-.57.2-1.12.44-1.64.71-.52.27-1.03.55-1.54.86-.47.34-.82.72-1.05,1.14-.23.42-.35.92-.35,1.49,0,.4.07.77.22,1.11.14.34.36.64.65.91.18.17.36.31.54.43.18.12.38.21.59.28.22-.07.43-.13.65-.2.22-.07.41-.17.59-.3.36-.24.7-.48,1.02-.73.32-.25.65-.51.97-.78l.11-.15.16-.15v-4.95c-.07.07-.14.11-.22.13M287.38,80.97c-.36.3-.73.57-1.11.81-.38.24-.76.45-1.16.66-.43.14-.86.25-1.3.35-.43.1-.86.15-1.29.15h-2.16c-.54,0-.99-.07-1.35-.2-.36-.13-.63-.35-.81-.66-.04-.1-.08-.2-.14-.3-.05-.1-.12-.2-.19-.3-.18.14-.37.27-.57.4-.2.13-.4.27-.62.4-.58.27-1.17.49-1.78.66-.61.17-1.26.25-1.94.25h-2.16c-.75,0-1.43-.11-2.02-.33-.59-.22-1.14-.55-1.65-.98-.47-.47-.82-.99-1.05-1.57-.23-.57-.35-1.2-.35-1.87,0-.71.13-1.32.38-1.84.25-.52.63-.95,1.13-1.29.5-.34,1.04-.64,1.62-.91.57-.27,1.17-.51,1.78-.71.07-.03.15-.07.24-.1.09-.03.19-.07.3-.1.07-.03.15-.07.24-.1.09-.03.19-.07.3-.1l5.77-2.07v-2.07c-.04-.1-.05-.19-.05-.28v-.28c0-.2,0-.4-.03-.61-.02-.2-.04-.42-.08-.66-.04-.44-.13-.86-.3-1.26-.16-.4-.35-.79-.57-1.16-.14-.24-.31-.44-.48-.61-.18-.17-.41-.3-.7-.4-.07.03-.15.06-.22.08-.07.02-.13.03-.16.03-.07.03-.14.06-.22.08-.07.02-.14.04-.21.08-.32.14-.63.28-.92.43-.29.15-.57.33-.86.53-.25.2-.46.41-.62.63-.16.22-.24.46-.24.73-.04.4-.13.73-.27.99-.14.25-.32.45-.54.58s-.48.24-.81.33c-.32.08-.7.14-1.13.18l-2.16-.05-.38-.1s-.06-.07-.08-.13c-.02-.05-.03-.11-.03-.18,0-.37.04-.71.14-1.03.09-.32.22-.6.4-.83.18-.27.39-.51.65-.73.25-.22.54-.43.86-.63.18-.1.35-.2.51-.3.16-.1.33-.22.51-.35.18-.13.37-.27.57-.4.2-.13.4-.27.62-.4.18-.1.35-.2.51-.3.16-.1.32-.2.46-.3.18-.1.36-.2.54-.3.18-.1.36-.2.54-.3.21-.1.44-.2.67-.3.23-.1.48-.2.73-.3.25-.07.49-.13.73-.18.23-.05.46-.08.67-.08l2.16-.05c1.15.03,2.11.24,2.89.61.77.37,1.34.93,1.7,1.67.36.74.63,1.52.81,2.35.18.83.29,1.68.32,2.55v1.52c-.04.2-.05.4-.05.58v3.91c-.04.2-.05.4-.05.58v3.56c.04.3.09.58.16.83.07.25.16.51.27.78.04.03.06.08.08.13.02.05.05.11.08.18.04-.03.07-.05.11-.05l.05-.05.22-.2.27-.15v-.05h2.16l.65.96Z"/>
    <path class="cls-1" d="M302.92,82.64h-3.45c-.43,0-.86-.02-1.29-.05-.11,0-.23,0-.35-.03-.13-.02-.26-.02-.4-.02s-.28,0-.4-.02c-.13-.02-.24-.02-.35-.02-.14,0-.29,0-.43.02-.14.02-.29.02-.43.02s-.28,0-.4.02c-.13.02-.26.03-.4.03-.47.03-.93.05-1.38.05h-3.53v-1.67c.75.07,1.37.03,1.83-.1.47-.13.81-.32,1.03-.56.18-.27.32-.63.43-1.09.11-.45.16-1,.16-1.64v-20.55l-.11-3.08c0-.47-.05-.91-.14-1.31-.09-.4-.23-.76-.4-1.06-.14-.3-.42-.53-.84-.68-.41-.15-.93-.23-1.54-.23l-.05-1.41c.58-.07,1.13-.19,1.67-.38s1.08-.4,1.62-.63c.5-.24,1.02-.48,1.54-.73.52-.25,1.02-.53,1.48-.83l2.16-.05,1.02.4c-.11.88-.2,1.74-.27,2.58-.07.84-.13,1.68-.16,2.53-.04.84-.05,1.67-.05,2.5v21.54c0,.07,0,.14-.03.2-.02.07-.03.14-.03.2v1.31c0,.57.04,1.06.14,1.46.09.4.21.74.35,1.01.18.23.48.41.89.53.41.12.96.18,1.64.18l-2.16-.05.49-.05h2.16v1.67Z"/>
  </g>
</svg>